<svg width="34" height="27" viewBox="0 0 34 27" fill="none" xmlns="http://www.w3.org/2000/svg">
<path d="M34 20.25C34 22.1115 32.3059 23.625 30.2222 23.625H12.1184C11.1149 23.625 10.1528 23.2717 9.44444 22.6389L0.553208 14.6918C0.198983 14.3754 0 13.9482 0 13.5C0 13.0518 0.199042 12.6246 0.553208 12.3082L9.44444 4.36377C10.1528 3.73043 11.1149 3.375 12.1184 3.375H30.2222C32.3059 3.375 34 4.88584 34 6.75V20.25ZM15.9965 10.974L18.7767 13.5L15.9965 15.9785C15.4476 16.4742 15.4476 17.2758 15.9965 17.724C16.5514 18.2619 17.4486 18.2619 17.9503 17.724L20.7778 15.2877L23.5521 17.724C24.1069 18.2619 25.0042 18.2619 25.5059 17.724C26.108 17.2758 26.108 16.4742 25.5059 15.9785L22.7788 13.5L25.5059 10.974C26.108 10.5258 26.108 9.72422 25.5059 9.22852C25.0042 8.73809 24.1069 8.73809 23.5521 9.22852L20.7778 11.7123L17.9503 9.22852C17.4486 8.73809 16.5514 8.73809 15.9965 9.22852C15.4476 9.72422 15.4476 10.5258 15.9965 10.974Z" fill="#F24E1E"/>
</svg>
