<svg width="34" height="28" viewBox="0 0 34 28" fill="none" xmlns="http://www.w3.org/2000/svg">
<path d="M23.7469 19.1881L25.6358 17.5006C25.9309 17.2369 26.4444 17.4215 26.4444 17.8012V25.4688C26.4444 26.8662 25.1753 28 23.6111 28H2.83333C1.2691 28 0 26.8662 0 25.4688V6.90625C0 5.50879 1.2691 4.375 2.83333 4.375H18.9774C19.3965 4.375 19.609 4.82852 19.3139 5.09746L17.425 6.78496C17.3365 6.86407 17.2184 6.90625 17.0885 6.90625H2.83333V25.4688H23.6111V19.4834C23.6111 19.3727 23.6583 19.2672 23.7469 19.1881ZM32.9906 8.54629L17.4899 22.3943L12.1538 22.9217C10.6073 23.0746 9.29097 21.9092 9.46215 20.517L10.0524 15.7498L25.5531 1.90176C26.9049 0.694144 29.0889 0.694144 30.4347 1.90176L32.9847 4.17989C34.3365 5.3875 34.3365 7.34395 32.9906 8.54629ZM27.1587 10.1758L23.7292 7.11192L12.7618 16.9152L12.3309 20.3588L16.1854 19.9738L27.1587 10.1758ZM30.9837 5.97286L28.4337 3.69473C28.1917 3.47852 27.7962 3.47852 27.5601 3.69473L25.7361 5.32422L29.1656 8.38809L30.9896 6.7586C31.2257 6.53711 31.2257 6.18907 30.9837 5.97286Z" fill="#13293D"/>
</svg>
